# xmcd
#
# Track frame offsets: 
#        150
#        48295
#        63706
#        87405
#        111385
#        128924
#        158190
#        176442
#        198059
#        225671
#        250209
#        282645
#        302819
#        330352
#
# Disc length: 4577 seconds
#
# Revision: 0
# Processed by: cddbd v1.5.2PL0 Copyright (c) Steve Scherf et al.
# Submitted via: ExactAudioCopy v1.3
#
DISCID=c411df0e
DTITLE=Awek - Let's Party Down [disk 2]
DYEAR=2019
DGENRE=Blues Rock
TTITLE0=I Aprreciate
TTITLE1=Sugar Coated Love
TTITLE2=In My Kitchen
TTITLE3=He's Fat
TTITLE4=A Place Where I Can Hide
TTITLE5=Telephone Blues
TTITLE6=Walter's Mood
TTITLE7=Drive an Automatic
TTITLE8=Gotta Find My Baby
TTITLE9=Allons bouger
TTITLE10=Sweet Little Angel
TTITLE11=If the Sea Was Whiskey
TTITLE12=Sunshine in My Bedroom
TTITLE13=Honky Tonk Blues
EXTD=
EXTT0=
EXTT1=
EXTT2=
EXTT3=
EXTT4=
EXTT5=
EXTT6=
EXTT7=
EXTT8=
EXTT9=
EXTT10=
EXTT11=
EXTT12=
EXTT13=
PLAYORDER=
